# xmcd
#
# Track frame offsets:
#	150
#	9979
#	20888
#	29350
#	37096
#	48221
#	57219
#	69068
#	79346
#	91780
#	99798
#	112579
#	124510
#	133847
#	143920
#	154033
#	163929
#	174332
#	181973
#	193213
#	204023
#	212353
#	222569
#	235175
#	247191
#	255090
#	267108
#	278517
#
# Disc length: 3877 seconds
# Revision: 1
# Processed by: cddbd v1.5.2PL0 Copyright (c) Steve Scherf et al.
# Submitted via: dBpowerAMP V12.0
#
DISCID=720f231c
DTITLE=Johnny Cash - Complete Columbia Album Collection, Disc 61 [Hot and Blue Guitar]
DYEAR=1957
DGENRE=Country
TTITLE0=Rock Island Line
TTITLE1=(I Heard That) Lonesome Whistle
TTITLE2=Country Boy
TTITLE3=If the Good Lord's Willing
TTITLE4=Cry! Cry! Cry!
TTITLE5=Remember Me (I'm the One Who Loves You)
TTITLE6=So Doggone Lomesome
TTITLE7=I Was There When it Happened
TTITLE8=I Walk the Line
TTITLE9=Wreck of the Old 97
TTITLE10=Folsom Prison Blues
TTITLE11=Doin' My Time
TTITLE12=Luther Played the Boogie
TTITLE13=Hey Porter
TTITLE14=Get Rhythm
TTITLE15=Ballad of a Teenage Queen
TTITLE16=There You Go
TTITLE17=Come in Stranger
TTITLE18=Don't Make Me Go
TTITLE19=Train of Love
TTITLE20=Guess Things Happen That Way
TTITLE21=The Ways of a Woman in Love
TTITLE22=Next in Line
TTITLE23=You're the Nearnest Thing to Heaven
TTITLE24=I Can't Help It
TTITLE25=Home of the Blues
TTITLE26=Big River
TTITLE27=Give My Love to Rose
EXTD=
EXTT0=
EXTT1=
EXTT2=
EXTT3=
EXTT4=
EXTT5=
EXTT6=
EXTT7=
EXTT8=
EXTT9=
EXTT10=
EXTT11=
EXTT12=
EXTT13=
EXTT14=
EXTT15=
EXTT16=
EXTT17=
EXTT18=
EXTT19=
EXTT20=
EXTT21=
EXTT22=
EXTT23=
EXTT24=
EXTT25=
EXTT26=
EXTT27=
PLAYORDER=
